<svg width="61" height="72" viewBox="0 0 61 72" fill="none" xmlns="http://www.w3.org/2000/svg">
<g clip-path="url(#clip0)">
<path d="M18.8893 0.724216C18.5458 0.726428 18.2083 0.814146 17.9072 0.97945C16.9186 1.52742 16.5561 2.7975 17.1038 3.78539L19.3358 7.8157C13.9583 11.1427 10.395 16.8258 10.395 23.3121V24.5173C9.36216 23.329 7.84411 22.5787 6.14794 22.5787C3.04013 22.5787 0.516846 25.102 0.516846 28.2096V45.5555C0.516846 48.6628 3.04036 51.1863 6.14794 51.1863C7.84411 51.1863 9.36216 50.4359 10.3948 49.2476V51.6773C10.3948 54.9532 13.0754 57.6335 16.3512 57.6335H17.8625V65.3498C17.8625 68.4577 20.386 70.9809 23.4936 70.9809C26.6011 70.9809 29.1244 68.4574 29.1244 65.3498V57.6335H31.7391V65.3498C31.7391 68.4577 34.2626 70.9809 37.3702 70.9809C40.4778 70.9809 43.0011 68.4574 43.0011 65.3498V57.6335H44.5125C47.7882 57.6335 50.4687 54.9532 50.4687 51.6773V49.2476C51.5014 50.4359 53.0197 51.1863 54.7158 51.1863C57.8234 51.1863 60.3467 48.6628 60.3467 45.5555V28.2096C60.3467 25.102 57.8234 22.5787 54.7158 22.5787C53.0197 22.5787 51.5014 23.329 50.4687 24.5173V23.516V23.4586C50.4692 23.3977 50.4687 23.3489 50.4687 23.3121C50.4687 16.827 46.8973 11.1495 41.5217 7.82226L43.76 3.78539C44.3075 2.7975 43.9451 1.52742 42.9565 0.97945C42.6555 0.814146 42.318 0.726428 41.9745 0.724216C41.2444 0.717185 40.5279 1.10203 40.1506 1.78289L37.8101 6.01101C35.5217 5.16656 33.0317 4.70367 30.432 4.70367C27.8347 4.70367 25.34 5.16164 23.0534 6.00445L20.7132 1.78289C20.3356 1.10203 19.6193 0.717653 18.8893 0.724216Z" fill="white"/>
<path d="M6.14803 24.0457C3.82912 24.0457 1.98389 25.8909 1.98389 28.2098V45.5557C1.98389 47.8746 3.82912 49.7198 6.14803 49.7198C8.46693 49.7198 10.3124 47.8746 10.3124 45.5557V28.2098C10.3124 25.8909 8.46693 24.0457 6.14803 24.0457ZM54.7162 24.0457C52.397 24.0457 50.5518 25.8909 50.5518 28.2098V45.5557C50.5518 47.8746 52.397 49.7198 54.7162 49.7198C57.0351 49.7198 58.8803 47.8746 58.8803 45.5557V28.2098C58.8803 25.8909 57.0351 24.0457 54.7162 24.0457Z" fill="#A4C639"/>
<path d="M23.4938 43.8398C21.1749 43.8398 19.3295 45.6851 19.3295 48.0042V65.3498C19.3295 67.6688 21.1749 69.514 23.4938 69.514C25.8127 69.514 27.658 67.6688 27.658 65.3498V48.0042C27.658 45.6851 25.8127 43.8398 23.4938 43.8398ZM37.3705 43.8398C35.0513 43.8398 33.2061 45.6851 33.2061 48.0042V65.3498C33.2061 67.6688 35.0513 69.514 37.3705 69.514C39.6894 69.514 41.5346 67.6688 41.5346 65.3498V48.0042C41.5346 45.6851 39.6894 43.8398 37.3705 43.8398Z" fill="#A4C639"/>
<path d="M18.9019 2.19124C18.8034 2.19243 18.7068 2.21873 18.6213 2.26765C18.3244 2.43218 18.2269 2.77343 18.3916 3.07109L21.3253 8.37054C15.6815 11.3073 11.8692 16.888 11.8617 23.293H49.0019C48.9942 16.888 45.1821 11.307 39.5383 8.37054L42.4718 3.07132C42.6368 2.77367 42.539 2.43218 42.2421 2.26765C42.1566 2.2187 42.06 2.1924 41.9615 2.19124C41.7506 2.1889 41.5512 2.29437 41.4387 2.49734L38.4668 7.85398C36.0358 6.77585 33.3091 6.17046 30.4317 6.17046C27.5543 6.17046 24.8278 6.77562 22.3966 7.85398L19.4248 2.49734C19.3741 2.40331 19.2985 2.32502 19.2063 2.27104C19.1141 2.21706 19.0089 2.18945 18.9021 2.19124H18.9019ZM11.8617 24.7597V51.6776C11.8604 52.2675 11.9757 52.8519 12.2009 53.3971C12.426 53.9424 12.7567 54.4378 13.1738 54.8549C13.591 55.272 14.0864 55.6026 14.6316 55.8278C15.1769 56.0529 15.7612 56.1682 16.3512 56.1669H44.5125C45.1024 56.1682 45.6868 56.0529 46.2321 55.8278C46.7773 55.6026 47.2728 55.272 47.6899 54.8548C48.107 54.4377 48.4377 53.9422 48.6628 53.397C48.888 52.8517 49.0032 52.2673 49.0019 51.6774V24.7599H11.8617V24.7597Z" fill="#A4C639"/>
<path d="M21.8608 13.3958C21.0131 13.3958 20.3112 14.0975 20.3112 14.9452C20.3112 15.7932 21.0131 16.4949 21.8608 16.4949C22.7088 16.4949 23.4105 15.7932 23.4105 14.9452C23.4105 14.0975 22.7088 13.3958 21.8608 13.3958ZM39.0026 13.3958C38.1546 13.3958 37.4529 14.0975 37.4529 14.9452C37.4529 15.7932 38.1546 16.4949 39.0026 16.4949C39.8503 16.4949 40.5522 15.7932 40.5522 14.9452C40.5522 14.0975 39.8503 13.3958 39.0026 13.3958Z" fill="white"/>
</g>
<defs>
<clipPath id="clip0">
<rect width="60" height="70.5469" fill="white" transform="translate(0.516846 0.523193)"/>
</clipPath>
</defs>
</svg>
