<svg width="151" height="61" viewBox="0 0 151 61" fill="none" xmlns="http://www.w3.org/2000/svg">
<g clip-path="url(#clip0)">
<path d="M0.629517 0.796631V4.8977H29.7983V0.796631H0.629517ZM33.931 0.796631V4.8977H75.4978C75.4978 4.8977 71.2519 0.796631 65.6285 0.796631H33.931ZM83.652 0.796631V4.8977H108.799L107.307 0.796631H83.652ZM126.829 0.796631L125.336 4.8977H150.255V0.796631H126.829ZM0.629517 8.77224V12.8733H29.7983V8.77224H0.629517ZM33.931 8.77809V12.8733H80.3212C80.3212 12.8733 79.7795 9.71702 78.8344 8.77809H33.931ZM83.652 8.77809V12.8733H111.556L110.175 8.77809H83.652ZM123.843 8.77809L122.462 12.8733H150.255V8.77809H123.843ZM9.01196 16.7478V20.8542H21.6442V16.7478H9.01196ZM42.3134 16.7478V20.8542H54.9456V16.7478H42.3134ZM67.2324 16.7478V20.8542H79.8646C79.8646 20.8542 80.6666 18.6854 80.6666 16.7476H67.2324V16.7478ZM92.0344 16.7478V20.8542H114.43L112.938 16.7476H92.0344V16.7478ZM121.092 16.7478L119.593 20.8545H142.101V16.7478H121.092ZM9.01196 24.7293V28.8298H21.6442V24.7293H9.01196ZM42.3134 24.7293V28.8298H74.5788C74.5788 28.8298 77.2779 26.7254 78.1378 24.7287H42.3134V24.7293ZM92.0344 24.7293V28.8298H104.667V26.5469L105.469 28.8298H128.608L129.469 26.5469V28.8298H142.101V24.7293H118.388L117.129 28.2032L115.865 24.7293H92.0344ZM9.01196 32.7043V36.8054H21.6442V32.7043H9.01196ZM42.3134 32.7043V36.8054H78.1378C77.2776 34.8152 74.5788 32.7043 74.5788 32.7043H42.3134ZM92.0344 32.7043V36.8054H104.667V32.7043H92.0344ZM106.961 32.7043L108.489 36.8054H125.839L127.291 32.7043H106.961ZM129.469 32.7043V36.8054H142.101V32.7043H129.469ZM9.01196 40.6799V44.781H21.6442V40.6799H9.01196ZM42.3134 40.6799V44.781H54.9456V40.6799H42.3134ZM67.2324 40.6799V44.781H80.6666C80.6666 42.8455 79.8646 40.6799 79.8646 40.6799H67.2324ZM92.0344 40.6799V44.781H104.667V40.6799H92.0344ZM109.83 40.6799L111.31 44.781H122.942L124.434 40.6799H109.83ZM129.469 40.6799V44.781H142.101V40.6799H129.469ZM0.857809 48.6558V52.7625H30.0266V48.6556H0.857809V48.6558ZM33.931 48.6558V52.7625H78.8344C79.7795 51.8221 80.3212 48.6556 80.3212 48.6556H33.931V48.6558ZM83.8802 48.6558V52.7625H104.667V48.6556H83.8802V48.6558ZM112.704 48.6558L114.226 52.7625H120.144L121.572 48.6556H112.704V48.6558ZM129.469 48.6558V52.7625H150.483V48.6556H129.469V48.6558ZM0.857809 56.637V60.7381H30.0266V56.637H0.857809ZM33.931 56.637V60.7319H65.6285C71.2519 60.7319 75.4978 56.6367 75.4978 56.6367H33.931V56.637ZM83.8802 56.637V60.7381H104.667V56.637H83.8802ZM115.59 56.637L117.053 60.7261L117.305 60.7319L118.791 56.6367H115.59V56.637ZM129.469 56.637V60.7381H150.483V56.637H129.469Z" fill="#1F70C1"/>
</g>
<defs>
<clipPath id="clip0">
<rect width="149.854" height="60" fill="white" transform="translate(0.629517 0.796631)"/>
</clipPath>
</defs>
</svg>
