<svg width="61" height="66" viewBox="0 0 61 66" fill="none" xmlns="http://www.w3.org/2000/svg">
<g clip-path="url(#clip0)">
<path d="M56.4201 52.7473C55.9677 56.1092 53.7053 59.0183 50.5379 60.3111C48.9864 60.9568 47.3059 61.1513 45.625 60.9568C44.0092 60.7632 42.3929 60.2459 40.7125 59.2773C38.3851 57.983 36.058 55.9801 33.3433 53.0063C37.6098 47.7704 40.1947 42.9868 41.1648 38.7212C41.6174 36.717 41.6818 34.9069 41.4883 33.226C41.23 31.6102 40.648 30.1229 39.7426 28.8303C37.7387 25.9217 34.3778 24.2408 30.6285 24.2408C26.8792 24.2408 23.518 25.9864 21.5141 28.8303C20.6087 30.1231 20.0277 31.6102 19.7687 33.226C19.5104 34.9069 19.5749 36.7815 20.0922 38.7214C21.0615 42.9866 23.7116 47.8351 27.9137 53.0701C25.2634 56.0445 22.8716 58.0482 20.5443 59.3412C18.8638 60.3111 17.2476 60.8283 15.6318 61.0215C13.9661 61.2075 12.2801 60.9859 10.719 60.3758C7.55146 59.083 5.28951 56.173 4.8367 52.8118C4.6431 51.1962 4.77224 49.5805 5.41865 47.7704C5.61224 47.1235 5.93591 46.4783 6.25865 45.702C6.71146 44.6682 7.22873 43.5685 7.74529 42.4693L7.81045 42.3408C12.2701 32.7087 17.054 22.8835 22.0314 13.317L22.2252 12.9284C22.7425 11.9598 23.259 10.9259 23.7768 9.95585C24.2936 8.92132 24.8753 7.95147 25.5861 7.11054C26.9436 5.55897 28.7537 4.71874 30.7576 4.71874C32.7615 4.71874 34.5714 5.55897 35.9289 7.11077C36.64 7.95147 37.2217 8.92132 37.739 9.95608C38.2562 10.9259 38.7728 11.9598 39.2901 12.9284L39.4846 13.317C44.3969 22.948 49.1807 32.7732 53.6408 42.4053V42.4693C54.1581 43.5038 54.6102 44.6682 55.1275 45.702C55.4509 46.4783 55.7739 47.1233 55.9675 47.7704C56.4847 49.4508 56.6786 51.0676 56.4203 52.7473H56.4201ZM30.6285 49.7089C27.1382 45.3139 24.8753 41.1765 24.0997 37.6869C23.777 36.1998 23.7116 34.9069 23.9061 33.7433C24.0351 32.7087 24.4234 31.8033 24.9397 31.0271C26.1681 29.2833 28.2365 28.1825 30.6285 28.1825C33.0203 28.1825 35.1533 29.2177 36.3168 31.0271C36.8336 31.8033 37.2217 32.7087 37.3508 33.7433C37.5447 34.9069 37.48 36.2642 37.157 37.6869C36.3815 41.1125 34.1188 45.2494 30.6285 49.7089ZM59.7815 46.348C59.4585 45.5722 59.1351 44.7322 58.8121 44.0211C58.2948 42.8581 57.7776 41.7584 57.325 40.7239L57.2603 40.6599C52.8006 30.9631 48.0168 21.1379 42.9747 11.4432L42.7811 11.0541C42.2638 10.0845 41.7465 9.04999 41.23 8.01593C40.5831 6.85179 39.9365 5.62483 38.9026 4.46046C36.8333 1.87483 33.8605 0.452881 30.6927 0.452881C27.4607 0.452881 24.5521 1.87483 22.4186 4.33179C21.4494 5.49499 20.7383 6.72311 20.0919 7.88749C19.5747 8.92132 19.0574 9.95585 18.5404 10.9259L18.3465 11.3126C13.3696 21.0087 8.5213 30.8347 4.06091 40.5308L3.99646 40.6599C3.54365 41.6937 3.02638 42.7923 2.50912 43.9566C2.16331 44.7227 1.84012 45.4989 1.53998 46.284C0.699274 48.6751 0.440993 50.938 0.763961 53.2646C1.47552 58.1129 4.70755 62.1858 9.16771 63.9952C10.8479 64.7068 12.5933 65.0298 14.4036 65.0298C14.9207 65.0298 15.5671 64.9651 16.0844 64.8999C18.2172 64.6409 20.4149 63.9312 22.5477 62.7024C25.1985 61.2158 27.7197 59.083 30.5636 55.9801C33.4075 59.083 35.9933 61.216 38.579 62.7024C40.7125 63.9312 42.91 64.6409 45.043 64.8999C45.5603 64.9651 46.2067 65.0298 46.7237 65.0298C48.5338 65.0298 50.3434 64.7068 51.9597 63.9952C56.4845 62.1858 59.6519 58.0484 60.3629 53.2646C60.8802 51.0017 60.6212 48.7405 59.7812 46.3477L59.7815 46.348Z" fill="#E0565B"/>
</g>
<defs>
<clipPath id="clip0">
<rect width="60" height="64.6875" fill="white" transform="translate(0.629517 0.452881)"/>
</clipPath>
</defs>
</svg>
